<?xml version="1.0" encoding="utf-8"?>
<!-- Generator: Adobe Illustrator 17.1.0, SVG Export Plug-In . SVG Version: 6.00 Build 0)  -->
<!DOCTYPE svg PUBLIC "-//W3C//DTD SVG 1.1//EN" "http://www.w3.org/Graphics/SVG/1.1/DTD/svg11.dtd">
<svg version="1.1" id="Calque_1" xmlns="http://www.w3.org/2000/svg" xmlns:xlink="http://www.w3.org/1999/xlink" x="0px" y="0px"
	 viewBox="0 0 1000 1000" enable-background="new 0 0 1000 1000" xml:space="preserve">
<path fill="#444444" d="M552.1,462.2c0-8.9-3.1-12.5-12-12.5c-26-0.1-52,0-77.9,0.1c-7.8,0-11.5,3.4-11.5,11.1
	c-0.1,20.1,0,40.2,0.3,60.3c0.1,5.8,3.9,9.3,9.8,9.6c2.4,0.1,4.8,0.2,7.1,0c2.7-0.2,3.5,1,3.4,3.5c-0.1,5.1,0,10.2,0,16.2
	c1.5-1,2.3-1.5,3.1-2c7-5.2,13.9-10.5,21.1-15.6c1.6-1.1,3.8-1.9,5.7-1.9c13.1-0.2,26.2-0.1,39.3-0.1c8.2,0,11.6-3.5,11.6-11.7
	C552.2,500.1,552.1,481.1,552.1,462.2z M543.1,516.4c-0.1,5.1-0.1,5.1-5.1,5.1c-12.7,0-25.5,0.1-38.2-0.1c-3.4,0-6.3,0.7-8.9,3
	c-3,2.5-6.3,4.7-10.2,7.6c0-4,0-7,0-10.5c-6.2,0-11.7-0.1-17.2,0c-2.6,0.1-3.6-0.8-3.5-3.4c0.1-18.6,0.1-37.2,0-55.9
	c0-2.4,0.8-3.3,3.3-3.3c25.6,0,51.2,0,76.9,0c2.4,0,3,1,3,3.2c0,12.4,0.1,24.7,0.1,37.1C543.2,504.9,543.2,510.6,543.1,516.4z"/>
</svg>
